<?xml version="1.0" standalone="no"?><!DOCTYPE svg PUBLIC "-//W3C//DTD SVG 1.1//EN" "http://www.w3.org/Graphics/SVG/1.1/DTD/svg11.dtd"><svg t="1685974108550" class="icon" viewBox="0 0 1024 1024" version="1.1" xmlns="http://www.w3.org/2000/svg" p-id="7669" xmlns:xlink="http://www.w3.org/1999/xlink" width="200" height="200"><path d="M512 431.03737m-403.435397 0a403.435397 403.435397 0 1 0 806.870794 0 403.435397 403.435397 0 1 0-806.870794 0Z" fill="#FFBAB0" p-id="7670"></path><path d="M511.884996 852.873469a421.836099 421.836099 0 1 1 421.951103-421.836099A422.296117 422.296117 0 0 1 511.884996 852.873469zM511.884996 46.002676a385.149699 385.149699 0 1 0 385.264703 385.034694A385.494712 385.494712 0 0 0 511.884996 46.002676z" fill="#783741" p-id="7671"></path><path d="M390.67037 127.540787a127.884881 127.884881 0 0 0-245.534371 50.256918c0 35.306347 30.821176 86.253292 53.937058 109.369174 54.627085-64.172449 109.829192-132.370052 191.597313-159.626092z" fill="#FFFFFF" p-id="7672"></path><path d="M199.073057 314.652928a27.141036 27.141036 0 0 1-19.435741-8.050307c-25.760983-25.760983-61.987366-82.688156-61.987366-128.804916a155.37093 155.37093 0 0 1 298.206381-61.182334 27.486049 27.486049 0 0 1-16.445628 36.916408c-70.842704 23.690904-122.249666 84.298217-172.506583 142.720447l-7.360281 8.740334a27.601053 27.601053 0 0 1-19.89576 9.660368z m73.947823-237.254054a100.513836 100.513836 0 0 0-100.283828 100.398831c0 17.480667 12.190465 44.506699 26.796023 66.242529 43.471659-50.601931 89.35841-100.398832 151.115767-129.95496a100.283827 100.283827 0 0 0-77.627962-36.6864z" fill="#783741" p-id="7673"></path><path d="M633.32963 127.540787a127.884881 127.884881 0 0 1 245.419367 50.256918 176.761746 176.761746 0 0 1-46.001756 106.494065c-54.51208-64.172449-117.64949-129.494942-199.417611-156.750983z" fill="#FFFFFF" p-id="7674"></path><path d="M832.97725 311.777819h-1.150044a27.486049 27.486049 0 0 1-19.780755-9.660369c-53.247032-62.332379-112.704301-123.514714-187.457154-148.585671a27.486049 27.486049 0 0 1-16.560632-36.916408 155.485934 155.485934 0 0 1 298.321385 61.182334c0 45.081721-27.486049 99.363792-53.937058 126.504828a27.486049 27.486049 0 0 1-19.435742 7.475286zM673.466162 113.855265c61.757357 28.636093 112.474292 76.017901 157.786022 126.504828a140.650368 140.650368 0 0 0 20.010764-62.677392A100.398832 100.398832 0 0 0 673.466162 113.855265z" fill="#783741" p-id="7675"></path><path d="M407.806024 844.133136L255.425208 996.513951l-0.230009-244.499331 152.610825 92.118516z" fill="#FFBAB0" p-id="7676"></path><path d="M255.425208 1023.539982a27.486049 27.486049 0 0 1-27.486049-27.486049V751.554602a27.486049 27.486049 0 0 1 41.746593-23.000877l152.610825 92.003511a27.831062 27.831062 0 0 1 12.995496 20.240772 27.486049 27.486049 0 0 1-7.820299 23.000878L274.86095 1015.949693a27.371045 27.371045 0 0 1-19.435742 7.590289z m27.371045-223.223519v129.839956l80.503072-80.503073z" fill="#783741" p-id="7677"></path><path d="M625.394328 844.133136l152.265811 152.380815 0.230008-244.499331-152.495819 92.118516z" fill="#FFBAB0" p-id="7678"></path><path d="M777.660139 1023.539982a27.371045 27.371045 0 0 1-19.435742-8.050307L605.958586 863.568877a27.486049 27.486049 0 0 1 5.175197-43.011641l152.610825-92.003511a27.371045 27.371045 0 0 1 41.631588 23.000877v244.959349A27.601053 27.601053 0 0 1 787.895529 1021.929921a28.406084 28.406084 0 0 1-10.23539 1.610061z m-107.989122-174.00164l80.503073 80.503072V800.776481z" fill="#783741" p-id="7679"></path><path d="M512 504.41017m-403.435397 0a403.435397 403.435397 0 1 0 806.870794 0 403.435397 403.435397 0 1 0-806.870794 0Z" fill="#FFBAB0" p-id="7680"></path><path d="M511.884996 926.246269a421.836099 421.836099 0 1 1 421.951103-421.836099A422.296117 422.296117 0 0 1 511.884996 926.246269z m0-806.985798a385.149699 385.149699 0 1 0 385.264703 385.149699A385.494712 385.494712 0 0 0 511.884996 119.260471z" fill="#783741" p-id="7681"></path><path d="M777.660139 1023.539982a27.141036 27.141036 0 0 1-18.975725-7.705294l-101.318866-97.293713a443.686933 443.686933 0 0 1-142.375434 20.930799 464.962745 464.962745 0 0 1-138.005267-16.790641l-103.50395 93.728577a27.486049 27.486049 0 0 1-46.001755-20.355777V840.567999A466.227793 466.227793 0 0 1 74.868317 504.41017v-73.3728a423.331156 423.331156 0 0 1 55.317111-199.992632 139.730333 139.730333 0 0 1-12.535478-53.247033A155.485934 155.485934 0 0 1 337.883355 36.572316a432.761516 432.761516 0 0 1 348.23329 0A155.485934 155.485934 0 0 1 906.35005 177.797705a164.686285 164.686285 0 0 1-11.500439 55.662125A423.676169 423.676169 0 0 1 948.901674 431.03737v73.3728a470.712964 470.712964 0 0 1-143.755486 330.062597v162.041184a27.716058 27.716058 0 0 1-16.790641 25.300966 27.141036 27.141036 0 0 1-10.695408 1.725065zM273.02088 77.398874a100.513836 100.513836 0 0 0-100.283828 100.398831 104.884003 104.884003 0 0 0 12.880492 42.091607 27.601053 27.601053 0 0 1-0.690026 25.760983C148.356122 310.51277 129.840415 372.270127 129.840415 431.03737v73.3728a407.46055 407.46055 0 0 0 142.950456 302.691552 27.946067 27.946067 0 0 1 9.890377 20.930799v106.034047l69.002634-62.907401a27.25604 27.25604 0 0 1 28.176075-5.405206c34.501317 12.995496 76.24791 18.86072 134.67014 18.860719a370.314133 370.314133 0 0 0 138.925302-23.000877 27.716058 27.716058 0 0 1 29.211114 5.750219L750.289094 931.536471v-109.254169a27.716058 27.716058 0 0 1 9.315356-20.70079 411.600708 411.600708 0 0 0 134.44013-297.171342v-73.3728c0-57.502195-17.940685-118.914538-53.362036-182.511965a27.831062 27.831062 0 0 1-1.150044-24.495935 122.939692 122.939692 0 0 0 11.500439-46.001756 100.283827 100.283827 0 0 0-150.65575-86.828313 27.601053 27.601053 0 0 1-25.530974 0.80503 376.52437 376.52437 0 0 0-325.69243 0 27.25604 27.25604 0 0 1-25.760983-1.035039 100.513836 100.513836 0 0 0-50.371922-13.570518z" fill="#783741" p-id="7682"></path><path d="M512 504.41017m-302.576548 0a302.576548 302.576548 0 1 0 605.153096 0 302.576548 302.576548 0 1 0-605.153096 0Z" fill="#FFFFFF" p-id="7683"></path><path d="M511.884996 825.272416a320.97725 320.97725 0 1 1 320.977249-320.862246A321.322263 321.322263 0 0 1 511.884996 825.272416z m0-605.153095a284.29085 284.29085 0 1 0 284.405854 284.290849A284.635863 284.635863 0 0 0 511.884996 220.119321z" fill="#783741" p-id="7684"></path><path d="M679.676399 522.695868H511.884996a18.400702 18.400702 0 0 1-18.400703-18.285698v-184.007022a18.400702 18.400702 0 1 1 36.6864 0v165.60632h149.505706a18.400702 18.400702 0 0 1 0 36.6864z" fill="#783741" p-id="7685"></path><path d="M512 504.41017m-41.976602 0a41.976602 41.976602 0 1 0 83.953204 0 41.976602 41.976602 0 1 0-83.953204 0Z" fill="#FFBAB0" p-id="7686"></path><path d="M511.884996 564.67247a60.2623 60.2623 0 1 1 60.262299-60.2623A60.377304 60.377304 0 0 1 511.884996 564.67247z m0-83.838199a23.000878 23.000878 0 1 0 23.575899 23.000877 23.5759 23.5759 0 0 0-23.575899-23.000877z" fill="#783741" p-id="7687"></path><path d="M528.790641 261.175888A16.790641 16.790641 0 1 1 511.884996 244.500251a16.790641 16.790641 0 0 1 16.905645 16.675637zM771.909919 504.41017a16.790641 16.790641 0 1 1-16.790641-16.79064 16.675636 16.675636 0 0 1 16.790641 16.79064zM528.790641 747.529449A16.790641 16.790641 0 1 1 511.884996 730.738808 16.905645 16.905645 0 0 1 528.790641 747.529449zM285.556358 504.41017a16.790641 16.790641 0 1 1-16.675636-16.79064 16.675636 16.675636 0 0 1 16.675636 16.79064z" fill="#783741" p-id="7688"></path></svg>