<?xml version="1.0" standalone="no"?><!DOCTYPE svg PUBLIC "-//W3C//DTD SVG 1.1//EN" "http://www.w3.org/Graphics/SVG/1.1/DTD/svg11.dtd"><svg t="1685974229138" class="icon" viewBox="0 0 1024 1024" version="1.1" xmlns="http://www.w3.org/2000/svg" p-id="13770" xmlns:xlink="http://www.w3.org/1999/xlink" width="200" height="200"><path d="M583.904 152.336c-102.272 0-188.336 69.456-213.584 163.76h-48.448c-113.056 0-204.704 91.648-204.704 204.704 0 112.4 90.592 203.648 202.736 204.688h57.632l4.112-3.952 327.024 10.432s100.064 3.792 147.728-20.624 65.968-85.28 70.896-99.968c5.632-16.752 8.672-34.704 8.672-53.36 0-84.592-62.704-154.528-144.176-165.872l13.104-23.76c-2.64-119.776-100.576-216.048-220.992-216.048z" fill="#95EAFF" p-id="13771"></path><path d="M769.28 367.12c0-110.88-89.072-200.832-199.024-200.832a197.2 197.2 0 0 0-130.448 49.152 16 16 0 0 0 21.088 24.064 165.248 165.248 0 0 1 109.36-41.216c92.208 0 167.024 75.552 167.024 168.832a16 16 0 0 0 32 0z" fill="#49A3FE" p-id="13772"></path><path d="M768 880m-16 0a16 16 0 1 0 32 0 16 16 0 1 0-32 0Z" fill="#49A3FE" p-id="13773"></path><path d="M710.256 864.048H640.16A48.096 48.096 0 0 1 592 816.096V550.624l52.688 52.688a15.984 15.984 0 1 0 22.624-22.624l-80-80A16.016 16.016 0 0 0 560 512v304.096c0 44.112 35.92 79.952 80.16 79.952h70.096a16 16 0 0 0 0-32z" fill="#49A3FE" p-id="13774"></path><path d="M870.144 714.192A171.52 171.52 0 0 1 786.176 736h-79.856a16 16 0 0 0 0 32h79.872c35.296 0 69.344-8.992 99.568-25.872a16 16 0 1 0-15.616-27.936zM839.184 359.824a15.84 15.84 0 0 0 4.336-10.8C843.52 200.48 724.208 80 576.96 80c-118.544 0-221.376 78.864-254.992 191.152a247.04 247.04 0 0 0-41.968-3.728C142.992 267.424 32 379.52 32 517.712c0 137.296 109.616 248.992 245.616 250.272h65.472a16 16 0 0 0 0-32h-65.312C159.536 734.864 64 637.52 64 517.712c0-120.592 96.736-218.288 216-218.288 42.032 0 82.24 12.128 116.8 34.624a217.6 217.6 0 0 1 34.608 27.968 16 16 0 1 0 22.544-22.704 245.952 245.952 0 0 0-100.816-60.752C383.28 180.608 473.328 112 576.96 112c129.504 0 234.56 106.08 234.56 237.024 0 1.952 0.464 3.776 1.104 5.504a205.984 205.984 0 0 0-26.448-1.904c-33.312 0-65.504 8-94.464 23.12a16 16 0 0 0 14.8 28.368 171.456 171.456 0 0 1 79.664-19.488c95.968 0 173.824 78.624 173.824 175.68a177.12 177.12 0 0 1-9.024 56.016 16.016 16.016 0 0 0 30.352 10.112c7.04-21.136 10.672-43.392 10.672-66.128 0-96.144-64.864-176.848-152.816-200.48z" fill="#0F13AE" p-id="13775"></path><path d="M272 512m-16 0a16 16 0 1 0 32 0 16 16 0 1 0-32 0Z" fill="#0F13AE" p-id="13776"></path><path d="M406.096 496H336a16 16 0 0 0 0 32h70.096a48.096 48.096 0 0 1 48.16 47.952v268.336l-59.264-55.92a16 16 0 1 0-21.968 23.28l84.8 80a15.856 15.856 0 0 0 11.776 4.288c0.224 0.016 0.416 0.128 0.656 0.128a16 16 0 0 0 16-16V575.952c0-44.112-35.92-79.952-80.16-79.952z" fill="#0F13AE" p-id="13777"></path></svg>