<?xml version="1.0" standalone="no"?>
<!DOCTYPE svg PUBLIC "-//W3C//DTD SVG 1.1//EN" "http://www.w3.org/Graphics/SVG/1.1/DTD/svg11.dtd">
<svg t="1686324300023" class="icon" viewBox="0 0 1024 1024" version="1.1" xmlns="http://www.w3.org/2000/svg" p-id="3243" xmlns:xlink="http://www.w3.org/1999/xlink" width="200" height="200">
<path d="M192 192m-64 0a64 64 0 1 0 128 0 64 64 0 1 0-128 0Z" p-id="3244" fill="#2c2c2c"></path>
<path d="M192 512m-64 0a64 64 0 1 0 128 0 64 64 0 1 0-128 0Z" p-id="3245" fill="#2c2c2c"></path>
<path d="M192 832m-64 0a64 64 0 1 0 128 0 64 64 0 1 0-128 0Z" p-id="3246" fill="#2c2c2c"></path>
<path d="M864 160H352c-17.7 0-32 14.3-32 32s14.3 32 32 32h512c17.7 0 32-14.3 32-32s-14.3-32-32-32zM864 480H352c-17.7 0-32 14.3-32 32s14.3 32 32 32h512c17.7 0 32-14.3 32-32s-14.3-32-32-32zM864 800H352c-17.7 0-32 14.3-32 32s14.3 32 32 32h512c17.7 0 32-14.3 32-32s-14.3-32-32-32z" p-id="3247" fill="#2c2c2c"></path>
</svg>