<?xml version="1.0" standalone="no"?><!DOCTYPE svg PUBLIC "-//W3C//DTD SVG 1.1//EN" "http://www.w3.org/Graphics/SVG/1.1/DTD/svg11.dtd"><svg t="1685973748654" class="icon" viewBox="0 0 1024 1024" version="1.1" xmlns="http://www.w3.org/2000/svg" p-id="4176" xmlns:xlink="http://www.w3.org/1999/xlink" width="200" height="200"><path d="M150.112 802l105.284 170.632a36.568 36.568 0 0 0 31.124 17.368h45.228a22.36 22.36 0 0 0 22.364-22.364V886l-204-84z" fill="#FF818E" p-id="4177"></path><path d="M274.112 806l105.284 170.632a36.568 36.568 0 0 0 31.124 17.368h45.228a22.36 22.36 0 0 0 22.364-22.364V890l-204-84z" fill="#E23D70" p-id="4178"></path><path d="M498.112 802l105.284 170.632a36.568 36.568 0 0 0 31.124 17.368h45.228a22.36 22.36 0 0 0 22.364-22.364V886l-204-84z" fill="#FF818E" p-id="4179"></path><path d="M844.112 262c-71.796 0-130 58.204-130 130 0 71.796 58.204 130 130 130v-260z" fill="#E23D70" p-id="4180"></path><path d="M684.112 262c-71.796 0-130 58.204-130 130 0 71.796 58.204 130 130 130v-260z" fill="#FFA5A8" p-id="4181"></path><path d="M626.112 806l105.284 170.632a36.568 36.568 0 0 0 31.124 17.368h45.228a22.36 22.36 0 0 0 22.364-22.364V842l-204-36z" fill="#E23D70" p-id="4182"></path><path d="M946.112 636c0-157.848-128.152-286-286-286h-288c-157.848 0-286 128.152-286 286s128.152 286 286 286h288c157.848 0 286-128.152 286-286z" fill="#FF99A1" p-id="4183"></path><path d="M526.112 328.728a14.736 14.736 0 0 0-14.728-14.728H344.84a14.736 14.736 0 0 0-14.728 14.728v58.544a14.736 14.736 0 0 0 14.728 14.728h166.544a14.736 14.736 0 0 0 14.728-14.728V328.728z" fill="#FC6479" fill-opacity=".5" p-id="4184"></path><path d="M222.916 553.18c-3.96 20.316-23.672 33.588-43.984 29.628-20.316-3.964-33.588-23.676-29.628-43.988 0 0 14.632-86.4 120.228-138.456 18.564-9.152 41.064-1.508 50.216 17.056 9.152 18.564 1.508 41.064-17.056 50.216-67.36 33.208-79.776 85.544-79.776 85.544z" fill="#FFFFFF" fill-opacity=".2" p-id="4185"></path><path d="M88.892 596c19.48 138.94 138.944 246 283.22 246h288c144.272 0 263.74-107.06 283.22-246 1.832 13.072 2.78 26.428 2.78 40 0 157.848-128.152 286-286 286h-288c-157.848 0-286-128.152-286-286 0-13.572 0.948-26.928 2.78-40z" fill="#FF808E" p-id="4186"></path><path d="M526.112 328.728a14.736 14.736 0 0 0-14.728-14.728H344.84a14.736 14.736 0 0 0-14.728 14.728v58.544a14.736 14.736 0 0 0 14.728 14.728h166.544a14.736 14.736 0 0 0 14.728-14.728V328.728z" fill="#FD647D" fill-opacity=".5" p-id="4187"></path><path d="M110.112 590s-32.732-14.968-76-40c0 0-30.416 68.716 72 100l4-60z" fill="#FF9AA2" p-id="4188"></path><path d="M994.112 652c0-47.464-38.536-86-86-86h-92c-47.464 0-86 38.536-86 86s38.536 86 86 86h92c47.464 0 86-38.536 86-86z" fill="#FC637D" p-id="4189"></path><path d="M808.112 652m-30 0a30 30 0 1 0 60 0 30 30 0 1 0-60 0Z" fill="#BD1E61" p-id="4190"></path><path d="M690.112 500a38 30 90 1 0 60 0 38 30 90 1 0-60 0Z" fill="#414454" p-id="4191"></path><path d="M854.112 500a38 30 90 1 0 60 0 38 30 90 1 0-60 0Z" fill="#414454" p-id="4192"></path><path d="M928.112 652m-30 0a30 30 0 1 0 60 0 30 30 0 1 0-60 0Z" fill="#BD1E61" p-id="4193"></path><path d="M418.112 154m-124 0a124 124 0 1 0 248 0 124 124 0 1 0-248 0Z" fill="#FFB952" p-id="4194"></path><path d="M480.44 6.524L284.696 239.116l67.084 56.46 195.748-232.592L480.44 6.524z" fill="#FFD274" p-id="4195"></path></svg>